# xmcd
#
# Track frame offsets:
#	150
#	15725
#	31663
#	46508
#	58128
#	70425
#	87528
#	103803
#	116690
#	134553
#	147253
#	162563
#
# Disc length: 2337 seconds
#
# Revision: 1
# Processed by: cddbd v1.5.1PL2 Copyright (c) Steve Scherf et al.
# Submitted via: audiograbber 1.83.01
#
DISCID=ac091f0c
DTITLE=Peggy March - Fly Away Pretty Flamingo
DYEAR=1989
DGENRE=Schlager
TTITLE0=Fly Away Pretty Flamingo
TTITLE1=Dann ist es Liebe
TTITLE2=Mit 17 hat man noch Träume
TTITLE3=Wenn du eine Rose siehst
TTITLE4=Man träumt seine Träume nie zu Ende
TTITLE5=Oklahoma Bay
TTITLE6=Du, mach mich nicht an
TTITLE7=Keiner kann es besser als Du
TTITLE8=Dreh die Uhr zurück zum Anfang
TTITLE9=Geh nicht vorbei an einer kleinen Liebelei
TTITLE10=Und die Gitarre weint wie ich
TTITLE11=Costa Brava
EXTD=
EXTT0=
EXTT1=
EXTT2=
EXTT3=
EXTT4=
EXTT5=
EXTT6=
EXTT7=
EXTT8=
EXTT9=
EXTT10=
EXTT11=
PLAYORDER=
